<svg width="20" height="15" viewBox="0 0 20 15" fill="none" xmlns="http://www.w3.org/2000/svg">
<path d="M7.82745 7.48701L0.152534 5.04045C0.0724478 5.01492 0.018075 4.94052 0.018075 4.85646L0.0180754 0.258387C0.0180754 0.151736 0.104533 0.0652791 0.211184 0.0652791L4.8529 0.0652795C4.9142 0.0652795 4.97187 0.0943898 5.00827 0.143717L9.88269 6.74836L7.82745 7.48701Z" fill="#F3F0F6"/>
<path d="M11.9351 7.48701L19.61 5.04045C19.6901 5.01492 19.7445 4.94052 19.7445 4.85646L19.7445 0.258387C19.7445 0.151736 19.658 0.0652791 19.5514 0.0652791L14.9097 0.0652795C14.8484 0.0652795 14.7907 0.0943898 14.7543 0.143717L9.87988 6.74836L11.9351 7.48701Z" fill="#F3F0F6"/>
<path d="M7.82745 7.48701L0.152534 9.93356C0.0724478 9.95909 0.018075 10.0335 0.018075 10.1176L0.0180754 14.7156C0.0180754 14.8223 0.104533 14.9087 0.211184 14.9087L4.8529 14.9087C4.9142 14.9087 4.97187 14.8796 5.00827 14.8303L9.88269 8.22565L7.82745 7.48701Z" fill="#F3F0F6"/>
<path d="M11.9351 7.48701L19.61 9.93356C19.6901 9.95909 19.7445 10.0335 19.7445 10.1176L19.7445 14.7156C19.7445 14.8223 19.658 14.9087 19.5514 14.9087L14.9097 14.9087C14.8484 14.9087 14.7907 14.8796 14.7543 14.8303L9.87988 8.22565L11.9351 7.48701Z" fill="#F3F0F6"/>
</svg>
