<svg width="135" height="22" viewBox="0 0 135 22" fill="none" xmlns="http://www.w3.org/2000/svg">
<path d="M7.82745 13.487L0.152534 11.0404C0.072448 11.0149 0.0180752 10.9405 0.0180752 10.8565L0.0180756 6.25839C0.0180756 6.15174 0.104533 6.06528 0.211184 6.06528L4.8529 6.06528C4.9142 6.06528 4.97187 6.09439 5.00827 6.14372L9.88269 12.7484L7.82745 13.487Z" fill="#F3F0F6"/>
<path d="M11.9351 13.487L19.61 11.0404C19.6901 11.0149 19.7445 10.9405 19.7445 10.8565L19.7445 6.25839C19.7445 6.15174 19.658 6.06528 19.5514 6.06528L14.9097 6.06528C14.8484 6.06528 14.7907 6.09439 14.7543 6.14372L9.87988 12.7484L11.9351 13.487Z" fill="#F3F0F6"/>
<path d="M7.82745 13.487L0.152534 15.9336C0.072448 15.9591 0.0180752 16.0335 0.0180752 16.1176L0.0180756 20.7156C0.0180756 20.8223 0.104533 20.9087 0.211184 20.9087L4.8529 20.9087C4.9142 20.9087 4.97187 20.8796 5.00827 20.8303L9.88269 14.2256L7.82745 13.487Z" fill="#F3F0F6"/>
<path d="M11.9351 13.487L19.61 15.9336C19.6901 15.9591 19.7445 16.0335 19.7445 16.1176L19.7445 20.7156C19.7445 20.8223 19.658 20.9087 19.5514 20.9087L14.9097 20.9087C14.8484 20.9087 14.7907 20.8796 14.7543 20.8303L9.87988 14.2256L11.9351 13.487Z" fill="#F3F0F6"/>
<path d="M32.3599 21.289C31.0813 21.289 29.9516 20.9737 28.9708 20.3432C27.99 19.6952 27.2281 18.7932 26.6851 17.6372C26.1597 16.4812 25.897 15.1676 25.897 13.6964C25.897 12.2076 26.1597 10.8853 26.6851 9.72931C27.2281 8.57334 27.99 7.68009 28.9708 7.04956C29.9516 6.40152 31.0813 6.0775 32.3599 6.0775C33.3582 6.0775 34.1902 6.2614 34.8557 6.62921C35.5388 6.99702 36.1956 7.61003 36.8261 8.46825L37.194 8.2318C36.9487 7.91654 36.8261 7.53122 36.8261 7.07583V0.954457H39.7161V21H36.8261V20.2907C36.8261 20.0279 36.8524 19.8178 36.905 19.6601C36.9575 19.485 37.0538 19.3098 37.194 19.1347L36.8261 18.872C36.1956 19.7477 35.5388 20.3695 34.8557 20.7373C34.1902 21.1051 33.3582 21.289 32.3599 21.289ZM32.8853 18.7669C33.691 18.7669 34.4091 18.5567 35.0396 18.1364C35.6877 17.6985 36.1869 17.0942 36.5372 16.3236C36.905 15.5529 37.0889 14.6772 37.0889 13.6964C37.0889 12.7156 36.905 11.8398 36.5372 11.0692C36.1869 10.281 35.6877 9.67676 35.0396 9.25641C34.4091 8.81854 33.691 8.59961 32.8853 8.59961C31.6418 8.59961 30.6435 9.08126 29.8903 10.0446C29.1547 10.9904 28.7869 12.2076 28.7869 13.6964C28.7869 15.1851 29.1547 16.4024 29.8903 17.3482C30.6435 18.294 31.6418 18.7669 32.8853 18.7669ZM47.7083 21.289C46.2896 21.289 45.0286 20.965 43.9251 20.3169C42.8217 19.6514 41.9635 18.7494 41.3505 17.6109C40.7375 16.4549 40.431 15.1676 40.431 13.7489C40.431 12.4178 40.7024 11.1655 41.2454 9.99203C41.8059 8.81854 42.629 7.87275 43.715 7.15465C44.8009 6.43655 46.1057 6.0775 47.6295 6.0775C48.9256 6.0775 50.1166 6.35773 51.2025 6.9182C52.3059 7.47867 53.1904 8.31938 53.8559 9.44032C54.5215 10.5437 54.8543 11.8924 54.8543 13.4862V14.2744H44.976C44.1178 14.2744 43.5048 14.2481 43.137 14.1955L43.0319 14.6159C43.1895 14.6509 43.2946 14.721 43.3471 14.8261C43.4172 14.9137 43.4873 15.0538 43.5573 15.2464C43.5923 15.3865 43.6712 15.588 43.7938 15.8507C44.1441 16.7439 44.6695 17.4533 45.3701 17.9787C46.0707 18.5042 46.8676 18.7669 47.7608 18.7669C48.6891 18.7669 49.486 18.5304 50.1516 18.0575C50.8172 17.5671 51.2988 16.9454 51.5966 16.1922H54.6178C54.1274 17.6985 53.2955 18.9245 52.122 19.8703C50.966 20.8161 49.4948 21.289 47.7083 21.289ZM43.5048 12.3828C43.75 12.2251 43.9777 12.1113 44.1878 12.0412C44.398 11.9712 44.6345 11.9362 44.8972 11.9362H50.4406C50.7383 11.9362 50.9923 11.9712 51.2025 12.0412C51.4302 12.1113 51.6754 12.2251 51.9381 12.3828L52.2008 12.0412C52.0432 11.9362 51.9381 11.8486 51.8855 11.7785C51.833 11.691 51.7892 11.5771 51.7542 11.437C51.7192 11.1918 51.6053 10.894 51.4127 10.5437C51.0624 9.87818 50.5544 9.37026 49.8889 9.01996C49.2408 8.65216 48.5227 8.46825 47.7346 8.46825C46.9114 8.46825 46.1845 8.65216 45.554 9.01996C44.9235 9.37026 44.4243 9.87818 44.0565 10.5437C43.8989 10.8065 43.7763 11.1042 43.6887 11.437C43.6537 11.5771 43.6099 11.691 43.5573 11.7785C43.5223 11.8661 43.426 11.9537 43.2683 12.0412L43.5048 12.3828ZM62.2568 21.289C60.4178 21.289 58.8765 20.8511 57.633 19.9754C56.4069 19.0821 55.6713 17.8211 55.4261 16.1922H58.3423C58.5525 17.0504 58.9816 17.716 59.6296 18.1889C60.2952 18.6618 61.1709 18.8982 62.2568 18.8982C63.1501 18.8982 63.8682 18.7318 64.4111 18.3991C64.9541 18.0488 65.2256 17.5584 65.2256 16.9278C65.2256 16.4374 65.0592 16.0521 64.7264 15.7719C64.3936 15.4741 63.9733 15.2464 63.4653 15.0888C62.9574 14.9312 62.2831 14.7648 61.4424 14.5896C60.2864 14.3619 59.3494 14.1255 58.6313 13.8803C57.9132 13.6351 57.3002 13.2322 56.7923 12.6718C56.2843 12.1113 56.0304 11.3407 56.0304 10.3598C56.0304 8.97618 56.5471 7.91654 57.5804 7.18092C58.6138 6.44531 59.9274 6.0775 61.5212 6.0775C63.1676 6.0775 64.5425 6.50661 65.6459 7.36483C66.7493 8.20553 67.4324 9.37901 67.6951 10.8853H64.9891C64.7789 10.0621 64.3674 9.44907 63.7543 9.04624C63.1413 8.6434 62.397 8.44198 61.5212 8.44198C60.6805 8.44198 60.0237 8.59961 59.5508 8.91488C59.0779 9.23014 58.8415 9.65925 58.8415 10.2022C58.8415 10.6401 58.9991 10.9904 59.3144 11.2531C59.6296 11.4983 60.015 11.691 60.4703 11.8311C60.9432 11.9712 61.6 12.1201 62.4407 12.2777C63.6317 12.5054 64.6038 12.7506 65.3569 13.0133C66.1101 13.2585 66.7493 13.6789 67.2748 14.2744C67.8177 14.8523 68.0892 15.658 68.0892 16.6914C68.0892 18.0926 67.5725 19.2135 66.5392 20.0542C65.5058 20.8774 64.0784 21.289 62.2568 21.289ZM72.6187 21L68.2313 6.36649H71.3314L73.6696 15.01C73.7571 15.3603 73.8184 15.7106 73.8535 16.0609C73.906 16.4112 73.941 16.7877 73.9586 17.1906H74.2738C74.3088 16.6476 74.3439 16.236 74.3789 15.9558C74.4139 15.6755 74.484 15.3603 74.5891 15.01L77.3476 6.36649H79.896L82.6283 15.01C82.7334 15.3778 82.8035 15.7193 82.8385 16.0346C82.891 16.3323 82.9261 16.7177 82.9436 17.1906H83.2851C83.3026 16.7001 83.3201 16.3061 83.3377 16.0083C83.3727 15.7106 83.4427 15.3778 83.5478 15.01L85.9386 6.36649H89.0387L84.5724 21H81.8664L79.1341 12.0675C79.0115 11.6647 78.9327 11.3319 78.8977 11.0692C78.8627 10.7889 78.8276 10.4036 78.7926 9.91321H78.4773C78.4423 10.3686 78.3985 10.7452 78.346 11.0429C78.3109 11.3231 78.2321 11.6647 78.1095 12.0675L75.3247 21H72.6187ZM93.8998 21.289C92.4636 21.289 91.3077 20.9124 90.4319 20.1593C89.5562 19.3887 89.1183 18.3465 89.1183 17.0329C89.1183 15.6843 89.6438 14.6247 90.6946 13.854C91.4828 13.276 92.6125 12.8469 94.0837 12.5667L98.8652 11.6472C98.8652 10.6663 98.5938 9.88694 98.0508 9.30896C97.4728 8.73097 96.7022 8.44198 95.7389 8.44198C94.9507 8.44198 94.2589 8.66967 93.6634 9.12505C93.0854 9.56292 92.7176 10.1584 92.56 10.9115H89.6963C89.9415 9.37026 90.6333 8.17926 91.7718 7.33855C92.9102 6.49785 94.2414 6.0775 95.7651 6.0775C96.6234 6.0775 97.429 6.20886 98.1822 6.47158C98.9528 6.71678 99.6009 7.08459 100.126 7.575C100.827 8.22305 101.265 8.98493 101.44 9.86067C101.633 10.7364 101.729 11.7435 101.729 12.8819V21H98.839V20.4483C98.839 20.0805 98.9441 19.5988 99.1542 19.0033L98.7864 18.8194C98.4011 19.485 97.9019 20.0279 97.2889 20.4483C96.4832 21.0088 95.3535 21.289 93.8998 21.289ZM94.4778 18.8982C95.2485 18.8982 95.949 18.7406 96.5796 18.4253C97.2977 18.075 97.8319 17.5934 98.1822 16.9804C98.3748 16.6476 98.5149 16.3411 98.6025 16.0609C98.6901 15.7631 98.7864 15.369 98.8915 14.8786C98.9441 14.6509 99.0141 14.4845 99.1017 14.3795C99.1893 14.2569 99.3119 14.1868 99.4695 14.1693L99.3907 13.7489L96.3431 14.3795L94.7668 14.6684C93.751 14.8786 93.0153 15.1939 92.56 15.6142C92.1921 15.982 92.0082 16.4287 92.0082 16.9541C92.0082 17.5671 92.2272 18.0488 92.665 18.3991C93.1204 18.7318 93.7247 18.8982 94.4778 18.8982ZM103.489 21V6.36649H106.379V7.07583C106.379 7.33855 106.352 7.55749 106.3 7.73264C106.247 7.89027 106.16 8.05666 106.037 8.2318L106.405 8.46825C106.965 7.61003 107.587 6.99702 108.27 6.62921C108.971 6.2614 109.829 6.0775 110.845 6.0775H111.134V8.91488H110.346C109.172 8.91488 108.261 9.2389 107.613 9.88694C106.79 10.6751 106.379 11.9712 106.379 13.7752V21H103.489ZM111.816 21V6.36649H114.706V7.07583C114.706 7.33855 114.679 7.55749 114.627 7.73264C114.574 7.89027 114.487 8.05666 114.364 8.2318L114.732 8.46825C115.327 7.61003 115.949 6.99702 116.597 6.62921C117.245 6.2614 117.998 6.0775 118.857 6.0775C119.785 6.0775 120.608 6.29643 121.326 6.7343C122.062 7.15465 122.508 7.77642 122.666 8.59961H123.008C123.691 6.9182 125.109 6.0775 127.264 6.0775C128.893 6.0775 130.11 6.54164 130.915 7.46991C131.721 8.39819 132.124 9.72055 132.124 11.437V21H129.234V11.9099C129.234 10.7889 129.006 9.94824 128.551 9.38777C128.096 8.80979 127.448 8.5208 126.607 8.5208C125.749 8.5208 125.057 8.80103 124.531 9.3615C124.111 9.81688 123.813 10.4036 123.638 11.1217C123.48 11.8223 123.402 12.7243 123.402 13.8277V21H120.538V11.9099C120.538 10.824 120.302 9.99203 119.829 9.41404C119.356 8.81854 118.699 8.5208 117.858 8.5208C117.018 8.5208 116.334 8.8273 115.809 9.44032C115.424 9.84315 115.143 10.3949 114.968 11.0955C114.793 11.7785 114.706 12.6893 114.706 13.8277V21H111.816Z" fill="#F3F0F6"/>
</svg>
